<svg width="20" height="20" viewBox="0 0 20 20" fill="none" xmlns="http://www.w3.org/2000/svg">
<path d="M10 19C14.9706 19 19 14.9706 19 10C19 5.02944 14.9706 1 10 1C5.02944 1 1 5.02944 1 10C1 14.9706 5.02944 19 10 19Z" fill="#C2C2C2" stroke="#C2C2C2" stroke-linecap="round" stroke-linejoin="round"/>
<path d="M16.3601 16.3807C15.5179 15.5454 14.8498 14.5513 14.3943 13.4561C13.9389 12.3608 13.7052 11.1861 13.7068 9.99996C13.7068 7.51499 14.7138 5.26499 16.3425 3.63623M3.64817 3.63623C4.48511 4.47099 5.14883 5.46293 5.60117 6.55504C6.05351 7.64715 6.28555 8.81788 6.28395 9.99996C6.28395 12.4917 5.27692 14.7413 3.64087 16.3705" stroke="white" stroke-linecap="round" stroke-linejoin="round"/>
<path d="M13.0866 9.84472L13.7073 10.1551L14.3281 9.84472M6.90477 10.1551L6.28401 9.84472L5.66325 10.1551M6.64888 12.2883L6.09671 11.8675L5.42925 12.0568M5.96585 14.1886L5.50709 13.668L4.81531 13.7225M4.90969 15.7998L4.66936 15.1484L4.00482 14.9499M5.1179 4.36299L4.45093 4.55418L4.20282 5.20267M6.11666 6.14694L5.43461 6.18099L5.0352 6.75602M6.73352 8.07489L6.04904 7.95813L5.54552 8.43635M13.3424 7.71148L13.8946 8.13229L14.5621 7.94256M14.0255 5.81126L14.4842 6.3318L15.176 6.27732M15.1201 4.15283L15.3604 4.80375L16.0249 5.00272M14.8238 15.5716L15.4913 15.3809L15.7389 14.7325M13.8737 13.8699L14.5669 13.8359L14.9551 13.2608M13.2578 11.9249L13.9423 12.0412L14.4458 11.5635" stroke="white" stroke-linecap="round" stroke-linejoin="round"/>
</svg>
