<svg width="21" height="18" viewBox="0 0 21 18" fill="none" xmlns="http://www.w3.org/2000/svg">
<path d="M7.65147 6.58446C6.75005 6.58446 5.97835 6.26187 5.33635 5.6167C4.69436 4.97153 4.373 4.19689 4.37227 3.29278C4.37154 2.38866 4.6929 1.61329 5.33635 0.966657C5.9798 0.320024 6.75151 -0.00182827 7.65147 0.00109767C8.55143 0.00402361 9.3235 0.325876 9.96768 0.966657C10.6119 1.60744 10.9329 2.38281 10.9307 3.29278C10.9285 4.20274 10.6075 4.97739 9.96768 5.6167C9.32787 6.25602 8.5558 6.5786 7.65147 6.58446ZM15.4111 14.9398C16.1267 14.9398 16.7243 14.7043 17.2038 14.2332C17.6847 13.7614 17.927 13.1528 17.9307 12.4074C17.935 11.6877 17.6949 11.0856 17.2103 10.6014C16.7265 10.1179 16.1267 9.87614 15.4111 9.87614C14.6956 9.87614 14.0958 10.119 13.612 10.6047C13.1281 11.0904 12.8862 11.6924 12.8862 12.4107C12.8862 13.129 13.1281 13.7303 13.612 14.2146C14.0958 14.6988 14.6956 14.9406 15.4111 14.9398ZM20.2469 18L17.5656 15.3063C17.2654 15.5499 16.9356 15.7328 16.5764 15.8549C16.2171 15.9771 15.8276 16.0378 15.4079 16.0371C14.4139 16.0371 13.5628 15.6819 12.8545 14.9717C12.1462 14.2614 11.7924 13.4074 11.7931 12.4096C11.7938 11.4119 12.1473 10.5575 12.8534 9.84651C13.5617 9.13404 14.4125 8.77781 15.4057 8.77781C16.3989 8.77781 17.2504 9.13331 17.9602 9.84432C18.6699 10.5553 19.0245 11.4097 19.0237 12.4074C19.0237 12.8134 18.9633 13.1971 18.8423 13.5584C18.7206 13.9198 18.5457 14.2508 18.3176 14.5514L21 17.2232L20.2469 18ZM0 14.5174V12.7125C0 12.2034 0.131168 11.7656 0.393504 11.3991C0.656569 11.0333 1.00999 10.7408 1.45378 10.5213C2.40183 10.0678 3.34333 9.70643 4.27826 9.43725C5.21247 9.16806 6.33687 9.03347 7.65147 9.03347C8.09452 9.03347 8.5139 9.05139 8.90959 9.08723C9.30601 9.12307 9.6904 9.17172 10.0628 9.23316C9.76546 9.72033 9.54502 10.2305 9.40147 10.7638C9.25791 11.2978 9.18613 11.8464 9.18613 12.4096C9.18613 12.7761 9.2171 13.1345 9.27904 13.4849C9.34026 13.8353 9.43972 14.1802 9.57745 14.5196L0 14.5174ZM15.5981 3.29278C15.5981 4.19762 15.2767 4.97227 14.634 5.6167C13.9913 6.26114 13.2196 6.58336 12.3189 6.58336C12.2722 6.58336 12.2132 6.57824 12.1418 6.568C12.0704 6.55776 12.0113 6.54605 11.9647 6.53289C12.3356 6.0779 12.6202 5.57318 12.8184 5.01871C13.0173 4.46352 13.1168 3.88711 13.1168 3.28949C13.1168 2.69186 13.013 2.1213 12.8053 1.57781C12.5976 1.03432 12.3174 0.525572 11.9647 0.0515701C12.0237 0.030357 12.0828 0.0164587 12.1418 0.00987537C12.2008 0.00329201 12.2598 0 12.3189 0C13.2203 0 13.992 0.322585 14.634 0.967754C15.276 1.61292 15.5973 2.38756 15.5981 3.29168" fill="#C2C2C2"/>
</svg>
