<svg width="18" height="18" viewBox="0 0 18 18" fill="none" xmlns="http://www.w3.org/2000/svg">
<path d="M0.649691 3.10978C0.451859 3.22549 0.28747 3.3931 0.173324 3.59548C0.0591789 3.79786 -0.000631072 4.02775 6.72689e-06 4.26166V16.5137C-0.000711792 16.742 0.0561416 16.9666 0.165024 17.1656C0.273907 17.3645 0.431104 17.5311 0.621291 17.6491C0.811478 17.767 1.02817 17.8324 1.25023 17.8387C1.47229 17.845 1.69216 17.792 1.88839 17.685C1.90567 17.6755 1.92254 17.6656 1.93901 17.6545L5.31962 15.3817C5.36451 15.3516 5.40137 15.3104 5.42685 15.262C5.45232 15.2135 5.4656 15.1593 5.46547 15.1042V0.348146C5.46563 0.28798 5.4498 0.228909 5.41968 0.177314C5.38956 0.125718 5.3463 0.0835567 5.29456 0.0553818C5.24282 0.027207 5.18458 0.0140889 5.12612 0.017444C5.06766 0.0207991 5.0112 0.0404998 4.96284 0.0744193L0.649691 3.10978ZM7.24657 0.0533634C7.19811 0.0209927 7.14205 0.00264967 7.0843 0.000266116C7.02654 -0.00211744 6.96923 0.0115466 6.91839 0.0398194C6.86756 0.0680921 6.82509 0.109927 6.79545 0.160919C6.76581 0.211911 6.7501 0.270172 6.74997 0.329568V15.0918C6.74984 15.1469 6.76312 15.2011 6.78859 15.2496C6.81406 15.2981 6.85092 15.3392 6.89582 15.3693L10.7529 17.9464C10.8014 17.9789 10.8576 17.9973 10.9154 17.9997C10.9733 18.0021 11.0307 17.9885 11.0816 17.9601C11.1325 17.9318 11.175 17.8899 11.2047 17.8387C11.2343 17.7876 11.2499 17.7292 11.2499 17.6698V2.91697C11.2501 2.86179 11.2368 2.80745 11.2112 2.75891C11.1857 2.71037 11.1487 2.66919 11.1037 2.63912L7.24657 0.0533634ZM17.3783 0.348972C17.1889 0.229814 16.9723 0.163756 16.7503 0.157382C16.5282 0.151007 16.3084 0.204538 16.1127 0.31264C16.0954 0.321773 16.0786 0.331975 16.0625 0.343192L12.6815 2.61393C12.6366 2.64401 12.5997 2.68516 12.5743 2.73361C12.5488 2.78207 12.5355 2.8363 12.5357 2.89137V17.6495C12.5354 17.7098 12.5513 17.7689 12.5814 17.8206C12.6115 17.8722 12.6549 17.9144 12.7067 17.9426C12.7585 17.9708 12.8168 17.9839 12.8753 17.9805C12.9338 17.9771 12.9903 17.9573 13.0387 17.9232L17.3406 14.8904C17.5408 14.7756 17.7075 14.6079 17.8234 14.4046C17.9394 14.2014 18.0003 13.9699 17.9999 13.7344V1.51365C18.0026 1.28098 17.9467 1.05153 17.8379 0.847506C17.729 0.643478 17.5707 0.471767 17.3783 0.348972Z" fill="#C2C2C2"/>
</svg>
