<svg width="27" height="18" viewBox="0 0 27 18" fill="none" xmlns="http://www.w3.org/2000/svg">
<path d="M6.27743 4.92167L3.58868 4.14544L5.24579 3.19274L9.82299 3.06153L7.57494 4.69421C7.20065 4.96605 6.72187 5.04998 6.27743 4.92167Z" fill="#C2C2C2" stroke="#C2C2C2"/>
<path d="M22.0855 1.4822L22.0855 1.48223L22.091 1.48343C22.1862 1.50414 22.278 1.55643 22.3516 1.63894C22.4256 1.72182 22.4768 1.83058 22.4939 1.95168C22.5109 2.07286 22.4921 2.19575 22.442 2.30264C22.392 2.4093 22.3148 2.49176 22.2256 2.54328L22.2256 2.54322L22.2185 2.54746C20.4764 3.59281 18.0028 5.07122 15.4129 6.5976L15.2123 6.71586L15.1737 6.94555L13.6383 16.0887L13.6382 16.0894C13.6362 16.1013 13.6313 16.1069 13.6305 16.1076C13.6304 16.1077 13.6304 16.1077 13.6304 16.1077L12.2334 17.342L11.5325 9.69334L11.4609 8.91154L10.7827 9.30705C8.97333 10.3623 7.30483 11.3203 5.98702 12.056C4.75794 12.7422 3.86081 13.2196 3.43339 13.4106L0.624376 11.0443C0.573406 10.9998 0.532599 10.9357 0.512768 10.8584C0.492694 10.78 0.496451 10.6967 0.522905 10.6216C0.549289 10.5466 0.595301 10.4877 0.649129 10.4495C0.701848 10.4121 0.760541 10.3952 0.817391 10.3968L3.77484 10.5343L3.9582 10.5428L4.10353 10.4306L16.4323 0.915969L16.4323 0.916016L16.4383 0.911245C16.6622 0.732874 16.9177 0.609277 17.1869 0.546893C17.456 0.484529 17.7342 0.484368 18.0034 0.546418L18.004 0.546556L22.0855 1.4822Z" fill="#C2C2C2" stroke="#C2C2C2"/>
<path d="M17 11.5C17 13.9853 19.0147 16 21.5 16C23.9853 16 26 13.9853 26 11.5C26 9.01465 23.9853 7 21.5 7C19.0147 7 17 9.01465 17 11.5Z" stroke="#C2C2C2" stroke-linecap="round" stroke-linejoin="round"/>
<path d="M21.9492 7.02246C21.9492 7.02246 23.2992 8.79996 23.2992 11.5C23.2992 14.2 21.9492 15.9775 21.9492 15.9775M21.0492 15.9775C21.0492 15.9775 19.6992 14.2 19.6992 11.5C19.6992 8.79996 21.0492 7.02246 21.0492 7.02246M17.2827 13.075H25.7157M17.2827 9.92496H25.7157" stroke="#C2C2C2" stroke-linecap="round" stroke-linejoin="round"/>
</svg>
