<svg width="19" height="18" viewBox="0 0 19 18" fill="none" xmlns="http://www.w3.org/2000/svg">
<path d="M5.24153 6.42857C6.11036 6.42857 6.94362 6.08992 7.55798 5.48713C8.17234 4.88433 8.51748 4.06677 8.51748 3.21429C8.51748 2.3618 8.17234 1.54424 7.55798 0.941442C6.94362 0.338647 6.11036 0 5.24153 0C4.37269 0 3.53944 0.338647 2.92508 0.941442C2.31072 1.54424 1.96557 2.3618 1.96557 3.21429C1.96557 4.06677 2.31072 4.88433 2.92508 5.48713C3.53944 6.08992 4.37269 6.42857 5.24153 6.42857ZM11.036 5.43857C11.707 5.24196 12.4036 5.14234 13.1038 5.14286C13.8041 5.14234 14.5006 5.24196 15.1716 5.43857C15.4733 5.05872 15.6603 4.60336 15.7111 4.12436C15.762 3.64536 15.6747 3.16197 15.4593 2.72925C15.2439 2.29652 14.9089 1.93186 14.4926 1.67677C14.0763 1.42169 13.5953 1.28645 13.1045 1.28645C12.6136 1.28645 12.1327 1.42169 11.7163 1.67677C11.3 1.93186 10.9651 2.29652 10.7496 2.72925C10.5342 3.16197 10.447 3.64536 10.4978 4.12436C10.5487 4.60336 10.7356 5.05872 11.0373 5.43857M7.54387 7.71429H1.96557C1.44427 7.71429 0.944319 7.91747 0.575703 8.27915C0.207087 8.64083 0 9.13137 0 9.64286V9.73929C0 9.73929 0 13.5 5.24153 13.5C5.51147 13.5 5.76786 13.4901 6.01072 13.4704C5.93467 13.0559 5.89651 12.6355 5.89672 12.2143C5.89672 10.5043 6.51522 8.93571 7.54387 7.71429ZM13.1038 18C14.3975 17.9999 15.6552 17.5824 16.6832 16.8118C17.7112 16.0412 18.4523 14.9602 18.7925 13.7356C19.1327 12.511 19.0529 11.2105 18.5656 10.0347C18.0782 8.85893 17.2103 7.873 16.0956 7.22888C14.9809 6.58475 13.6812 6.31818 12.3969 6.47024C11.1125 6.62229 9.9148 7.18454 8.98822 8.07033C8.06165 8.95613 7.45768 10.1163 7.26937 11.3721C7.08106 12.6279 7.31887 13.9096 7.94615 15.0197L7.232 17.3199C7.20435 17.4109 7.20229 17.5076 7.22606 17.5997C7.24982 17.6918 7.29851 17.7759 7.36699 17.8431C7.43546 17.9103 7.52117 17.9581 7.61505 17.9814C7.70893 18.0047 7.80748 18.0027 7.90029 17.9756L10.2459 17.2761C11.1206 17.7512 12.104 18.0003 13.1038 18ZM9.82786 10.9286C9.82786 10.7581 9.89689 10.5946 10.0198 10.474C10.1426 10.3534 10.3093 10.2857 10.4831 10.2857H15.7246C15.8983 10.2857 16.065 10.3534 16.1879 10.474C16.3107 10.5946 16.3798 10.7581 16.3798 10.9286C16.3798 11.0991 16.3107 11.2626 16.1879 11.3831C16.065 11.5037 15.8983 11.5714 15.7246 11.5714H10.4831C10.3093 11.5714 10.1426 11.5037 10.0198 11.3831C9.89689 11.2626 9.82786 11.0991 9.82786 10.9286ZM10.4831 14.1429C10.3093 14.1429 10.1426 14.0751 10.0198 13.9546C9.89689 13.834 9.82786 13.6705 9.82786 13.5C9.82786 13.3295 9.89689 13.166 10.0198 13.0454C10.1426 12.9249 10.3093 12.8571 10.4831 12.8571H13.1038C13.2776 12.8571 13.4442 12.9249 13.5671 13.0454C13.69 13.166 13.759 13.3295 13.759 13.5C13.759 13.6705 13.69 13.834 13.5671 13.9546C13.4442 14.0751 13.2776 14.1429 13.1038 14.1429H10.4831Z" fill="#C2C2C2"/>
</svg>
