<svg width="14" height="14" viewBox="0 0 14 14" fill="none" xmlns="http://www.w3.org/2000/svg">
<path fill-rule="evenodd" clip-rule="evenodd" d="M12.7996 0.664841C12.3738 0.239144 11.7963 0 11.1942 0C10.592 0 10.0145 0.239144 9.5887 0.664841L9.05355 1.20074L12.8004 4.94745L13.3348 4.41231C13.5457 4.20145 13.713 3.95111 13.8271 3.67559C13.9413 3.40006 14 3.10475 14 2.80652C14 2.5083 13.9413 2.21299 13.8271 1.93746C13.713 1.66194 13.5457 1.4116 13.3348 1.20074L12.7996 0.664841ZM11.7293 6.01773L7.98249 2.27101L1.10197 9.1521C0.951402 9.30269 0.846221 9.49259 0.798439 9.7001L0.0195548 13.0722C-0.00946676 13.1973 -0.00613785 13.3278 0.0292278 13.4514C0.0645935 13.5749 0.130832 13.6874 0.221701 13.7783C0.31257 13.8692 0.425078 13.9354 0.548624 13.9708C0.67217 14.0061 0.802686 14.0095 0.927874 13.9804L4.30077 13.2023C4.50802 13.1544 4.69764 13.0493 4.84803 12.8988L11.7293 6.01773Z" fill="#0084FF"/>
</svg>
