<svg width="22" height="22" viewBox="0 0 22 22" fill="none" xmlns="http://www.w3.org/2000/svg">
<path d="M11 0.75C16.6612 0.75 21.25 5.33883 21.25 11C21.25 16.6612 16.6612 21.25 11 21.25H10.999C9.4156 21.2526 7.8528 20.8868 6.43555 20.1807H6.43652C5.95315 19.9391 5.37768 19.9822 4.78223 20.1289L4.77539 20.1309C4.47749 20.2072 4.18296 20.2962 3.89258 20.3975L3.79492 20.4307C3.54429 20.5146 3.29992 20.5963 3.07617 20.6562C2.02577 20.9373 1.06258 19.9752 1.34375 18.9229C1.40391 18.6993 1.48489 18.4523 1.56836 18.2041L1.56934 18.2051L1.60254 18.1074C1.70376 17.817 1.79282 17.5225 1.86914 17.2246L1.87109 17.2158C2.01652 16.6206 2.05883 16.0471 1.82031 15.5654V15.5645L1.69531 15.3047C1.08849 13.9951 0.750001 12.5368 0.75 11C0.75 8.28153 1.82971 5.6742 3.75195 3.75195C5.6742 1.82971 8.28153 0.75 11 0.75Z" fill="#0084FF" stroke="#0084FF" stroke-width="1.5"/>
<path d="M10.0833 11.0002C10.0833 11.2433 10.1799 11.4764 10.3518 11.6483C10.5237 11.8203 10.7569 11.9168 11 11.9168C11.2431 11.9168 11.4763 11.8203 11.6482 11.6483C11.8201 11.4764 11.9167 11.2433 11.9167 11.0002C11.9167 10.757 11.8201 10.5239 11.6482 10.352C11.4763 10.1801 11.2431 10.0835 11 10.0835C10.7569 10.0835 10.5237 10.1801 10.3518 10.352C10.1799 10.5239 10.0833 10.757 10.0833 11.0002ZM6.41666 11.0002C6.41666 11.2433 6.51323 11.4764 6.68514 11.6483C6.85705 11.8203 7.09021 11.9168 7.33332 11.9168C7.57644 11.9168 7.8096 11.8203 7.9815 11.6483C8.15341 11.4764 8.24999 11.2433 8.24999 11.0002C8.24999 10.757 8.15341 10.5239 7.9815 10.352C7.8096 10.1801 7.57644 10.0835 7.33332 10.0835C7.09021 10.0835 6.85705 10.1801 6.68514 10.352C6.51323 10.5239 6.41666 10.757 6.41666 11.0002ZM13.75 11.0002C13.75 11.2433 13.8466 11.4764 14.0185 11.6483C14.1904 11.8203 14.4235 11.9168 14.6667 11.9168C14.9098 11.9168 15.1429 11.8203 15.3148 11.6483C15.4867 11.4764 15.5833 11.2433 15.5833 11.0002C15.5833 10.757 15.4867 10.5239 15.3148 10.352C15.1429 10.1801 14.9098 10.0835 14.6667 10.0835C14.4235 10.0835 14.1904 10.1801 14.0185 10.352C13.8466 10.5239 13.75 10.757 13.75 11.0002Z" fill="white"/>
</svg>
