<svg width="8" height="6" viewBox="0 0 8 6" fill="none" xmlns="http://www.w3.org/2000/svg">
<path d="M0 0.391304C0 0.287524 0.0383115 0.187994 0.106507 0.11461C0.174702 0.0412265 0.267194 0 0.363636 0H7.63636C7.73281 0 7.8253 0.0412265 7.89349 0.11461C7.96169 0.187994 8 0.287524 8 0.391304C8 0.495085 7.96169 0.594615 7.89349 0.667998C7.8253 0.741382 7.73281 0.782609 7.63636 0.782609H0.363636C0.267194 0.782609 0.174702 0.741382 0.106507 0.667998C0.0383115 0.594615 0 0.495085 0 0.391304ZM1.21212 3C1.21212 2.89622 1.25043 2.79669 1.31863 2.72331C1.38682 2.64992 1.47932 2.6087 1.57576 2.6087H6.42424C6.52069 2.6087 6.61318 2.64992 6.68137 2.72331C6.74957 2.79669 6.78788 2.89622 6.78788 3C6.78788 3.10378 6.74957 3.20331 6.68137 3.27669C6.61318 3.35008 6.52069 3.3913 6.42424 3.3913H1.57576C1.47932 3.3913 1.38682 3.35008 1.31863 3.27669C1.25043 3.20331 1.21212 3.10378 1.21212 3ZM2.66667 5.6087C2.66667 5.50492 2.70498 5.40539 2.77317 5.332C2.84137 5.25862 2.93386 5.21739 3.0303 5.21739H4.9697C5.06614 5.21739 5.15863 5.25862 5.22683 5.332C5.29502 5.40539 5.33333 5.50492 5.33333 5.6087C5.33333 5.71248 5.29502 5.81201 5.22683 5.88539C5.15863 5.95877 5.06614 6 4.9697 6H3.0303C2.93386 6 2.84137 5.95877 2.77317 5.88539C2.70498 5.81201 2.66667 5.71248 2.66667 5.6087Z" fill="#1B1D28"/>
</svg>
