<svg width="21" height="21" viewBox="0 0 21 21" fill="none" xmlns="http://www.w3.org/2000/svg">
<circle cx="10.5" cy="10.5" r="6.5" fill="#C7E4FF"/>
<g filter="url(#filter0_f_211_14875)">
<circle cx="10.5" cy="10.5" r="6.5" fill="#C7E4FF"/>
</g>
<path fill-rule="evenodd" clip-rule="evenodd" d="M10.6188 14.0746L10.6197 14.0742L10.6217 14.0728L10.6279 14.0682L10.6523 14.0511C10.6732 14.0363 10.7027 14.0146 10.741 13.9861C10.8169 13.9295 10.9246 13.8463 11.0532 13.7393C11.3907 13.4589 11.7062 13.1545 11.9972 12.8285C12.6798 12.0609 13.3889 10.9655 13.3889 9.71286C13.3889 8.96455 13.0847 8.24632 12.5432 7.71668C12.2756 7.45453 11.9573 7.24643 11.6067 7.10437C11.256 6.9623 10.8799 6.88908 10.5 6.88892C10.1201 6.88906 9.74399 6.96225 9.39332 7.10428C9.04265 7.2463 8.72433 7.45436 8.4567 7.71648C7.91477 8.24737 7.61079 8.9651 7.61108 9.71306C7.61108 10.9655 8.3201 12.0609 9.0027 12.8285C9.29373 13.1545 9.60928 13.4589 9.94675 13.7393C10.0755 13.8463 10.183 13.9295 10.259 13.9861C10.2962 14.014 10.3338 14.0414 10.3718 14.0684L10.3784 14.0728L10.3803 14.0742L10.3811 14.0746C10.4523 14.1233 10.5476 14.1233 10.6188 14.0746ZM11.5317 9.69762C11.5317 9.96366 11.423 10.2188 11.2295 10.4069C11.036 10.595 10.7736 10.7007 10.5 10.7007C10.2263 10.7007 9.96391 10.595 9.77042 10.4069C9.57693 10.2188 9.46823 9.96366 9.46823 9.69762C9.46823 9.43158 9.57693 9.17643 9.77042 8.98831C9.96391 8.80019 10.2263 8.69451 10.5 8.69451C10.7736 8.69451 11.036 8.80019 11.2295 8.98831C11.423 9.17643 11.5317 9.43158 11.5317 9.69762Z" fill="#0084FF"/>
<circle cx="10.5" cy="9.77782" r="1.44444" fill="#0084FF"/>
<circle cx="10.5" cy="9.77776" r="0.722222" fill="white"/>
<defs>
<filter id="filter0_f_211_14875" x="0" y="0" width="21" height="21" filterUnits="userSpaceOnUse" color-interpolation-filters="sRGB">
<feFlood flood-opacity="0" result="BackgroundImageFix"/>
<feBlend mode="normal" in="SourceGraphic" in2="BackgroundImageFix" result="shape"/>
<feGaussianBlur stdDeviation="2" result="effect1_foregroundBlur_211_14875"/>
</filter>
</defs>
</svg>
