<svg width="14" height="16" viewBox="0 0 14 16" fill="none" xmlns="http://www.w3.org/2000/svg">
<path d="M12.0898 10.2554C11.8708 9.89468 11.7546 9.47777 11.7543 9.05222V5.90125C11.7543 4.60136 11.2534 3.35471 10.3618 2.43554C9.47021 1.51638 8.26093 1 7 1C5.73907 1 4.52978 1.51638 3.63817 2.43554C2.74656 3.35471 2.24566 4.60136 2.24566 5.90125V9.05071C2.24572 9.47677 2.12947 9.89425 1.9102 10.2554L1.11158 11.5721C1.04213 11.6866 1.00369 11.8183 1.00025 11.9533C0.996814 12.0883 1.0285 12.2218 1.09202 12.34C1.15554 12.4581 1.24857 12.5566 1.36147 12.6251C1.47437 12.6937 1.60301 12.7299 1.73404 12.7299H12.266C12.397 12.7299 12.5256 12.6937 12.6385 12.6251C12.7514 12.5566 12.8445 12.4581 12.908 12.34C12.9715 12.2218 13.0032 12.0883 12.9997 11.9533C12.9963 11.8183 12.9579 11.6866 12.8884 11.5721L12.0898 10.2554Z" fill="#C7E4FF" stroke="#2A2A2A" stroke-width="1.5" stroke-linecap="round" stroke-linejoin="round"/>
<path d="M5.53198 15H8.46812H5.53198Z" fill="#C7E4FF"/>
<path d="M5.53198 15H8.46812" stroke="#2A2A2A" stroke-width="1.5" stroke-linecap="round"/>
</svg>
