<svg width="16" height="18" viewBox="0 0 16 18" fill="none" xmlns="http://www.w3.org/2000/svg">
<path d="M13.2752 6.86517V9.91491C13.2752 10.386 13.4076 10.8476 13.6573 11.2471L14.5705 12.7049C14.6498 12.8318 14.6937 12.9776 14.6976 13.1272C14.7015 13.2768 14.6652 13.4247 14.5926 13.5555C14.52 13.6863 14.4137 13.7953 14.2847 13.8712C14.1558 13.947 14.0088 13.987 13.8592 13.9868H1.83784C1.68828 13.9868 1.54145 13.9468 1.41259 13.8709C1.28373 13.795 1.17753 13.6859 1.10503 13.5551C1.03253 13.4243 0.996363 13.2765 1.00029 13.127C1.00421 12.9775 1.04809 12.8317 1.12735 12.7049L2.03892 11.2471C2.28889 10.8477 2.42157 10.3861 2.42182 9.91491V6.42614C2.42191 5.53058 2.64364 4.64897 3.06723 3.85992C3.49082 3.07088 4.1031 2.39893 4.84947 1.904C5.59584 1.40908 6.4531 1.10656 7.34479 1.02343C8.23648 0.940302 9.13488 1.07915 9.95987 1.42758" fill="#C7E4FF"/>
<path d="M13.2752 6.86517V9.91491C13.2752 10.386 13.4076 10.8476 13.6573 11.2471L14.5705 12.7049C14.6498 12.8318 14.6937 12.9776 14.6976 13.1272C14.7015 13.2768 14.6652 13.4247 14.5926 13.5555C14.52 13.6863 14.4137 13.7953 14.2847 13.8712C14.1558 13.947 14.0088 13.987 13.8592 13.9868H1.83784C1.68828 13.9868 1.54145 13.9468 1.41259 13.8709C1.28373 13.795 1.17753 13.6859 1.10503 13.5551C1.03253 13.4243 0.996363 13.2765 1.00029 13.127C1.00421 12.9775 1.04809 12.8317 1.12735 12.7049L2.03892 11.2471C2.28889 10.8477 2.42157 10.3861 2.42182 9.91491V6.42614C2.42191 5.53058 2.64364 4.64897 3.06723 3.85992C3.49082 3.07088 4.1031 2.39893 4.84947 1.904C5.59584 1.40908 6.4531 1.10656 7.34479 1.02343C8.23648 0.940302 9.13488 1.07915 9.95987 1.42758" stroke="black" stroke-width="1.5" stroke-linecap="round" stroke-linejoin="round"/>
<path d="M6.17283 16.5004H9.52419" stroke="black" stroke-width="1.5" stroke-linecap="round"/>
<path d="M13.2945 5.39892C14.4513 5.39892 15.3891 4.46114 15.3891 3.30432C15.3891 2.1475 14.4513 1.20972 13.2945 1.20972C12.1377 1.20972 11.1999 2.1475 11.1999 3.30432C11.1999 4.46114 12.1377 5.39892 13.2945 5.39892Z" fill="#0084FF"/>
</svg>
