<svg width="16" height="18" viewBox="0 0 16 18" fill="none" xmlns="http://www.w3.org/2000/svg">
<path d="M13.9381 11.5776C13.6826 11.1653 13.547 10.6889 13.5467 10.2025V6.60143C13.5467 5.11584 12.9623 3.69109 11.9221 2.64062C10.8819 1.59015 9.47108 1 8 1C6.52892 1 5.11808 1.59015 4.07787 2.64062C3.03765 3.69109 2.45327 5.11584 2.45327 6.60143V10.2008C2.45333 10.6877 2.31771 11.1649 2.06191 11.5776L1.13017 13.0824C1.04915 13.2133 1.00431 13.3637 1.0003 13.518C0.996283 13.6724 1.03325 13.825 1.10735 13.96C1.18146 14.095 1.29 14.2075 1.42172 14.2859C1.55343 14.3642 1.70351 14.4056 1.85638 14.4056H14.1436C14.2965 14.4056 14.4466 14.3642 14.5783 14.2859C14.71 14.2075 14.8185 14.095 14.8926 13.96C14.9668 13.825 15.0037 13.6724 14.9997 13.518C14.9957 13.3637 14.9508 13.2133 14.8698 13.0824L13.9381 11.5776Z" fill="#C7E4FF" stroke="#2A2A2A" stroke-width="1.5" stroke-linecap="round" stroke-linejoin="round"/>
<path d="M6.28732 17H9.71282H6.28732Z" fill="#C7E4FF"/>
<path d="M6.28732 17H9.71282" stroke="#2A2A2A" stroke-width="1.5" stroke-linecap="round"/>
</svg>
