<svg width="10" height="10" viewBox="0 0 10 10" fill="none" xmlns="http://www.w3.org/2000/svg">
<path d="M5 9C7.20914 9 9 7.20914 9 5C9 2.79086 7.20914 1 5 1C2.79086 1 1 2.79086 1 5C1 7.20914 2.79086 9 5 9Z" fill="#0084FF" stroke="#0084FF" stroke-linecap="round" stroke-linejoin="round"/>
<path d="M7.82668 7.83585C7.45239 7.46459 7.15545 7.02279 6.95303 6.53601C6.75061 6.04923 6.64675 5.52714 6.64744 4.99996C6.64744 3.89552 7.095 2.89552 7.81889 2.17163M2.17695 2.17163C2.54893 2.54264 2.84391 2.9835 3.04495 3.46888C3.24599 3.95426 3.34912 4.47459 3.34841 4.99996C3.34841 6.10741 2.90084 7.1072 2.17371 7.83131" stroke="white" stroke-width="0.5" stroke-linecap="round" stroke-linejoin="round"/>
<path d="M6.37177 4.93085L6.64767 5.0688L6.92356 4.93085M3.62431 5.0688L3.34842 4.93085L3.07253 5.0688M3.51058 6.01691L3.26518 5.82988L2.96853 5.91399M3.20702 6.86145L3.00312 6.6301L2.69567 6.65431M2.73761 7.57756L2.6308 7.28804L2.33545 7.19983M2.83015 2.49453L2.53372 2.5795L2.42345 2.86772M3.27404 3.28739L2.97091 3.30253L2.7934 3.5581M3.54821 4.14426L3.24399 4.09237L3.02021 4.30491M6.4855 3.98274L6.73091 4.16977L7.02756 4.08545M6.78907 3.1382L6.99296 3.36956L7.30042 3.34534M7.27556 2.40112L7.38237 2.69042L7.67772 2.77885M7.14388 7.47615L7.44053 7.39139L7.55058 7.10318M6.72161 6.71983L7.02972 6.70469L7.20226 6.44912M6.44788 5.85539L6.7521 5.90707L6.97588 5.69474" stroke="white" stroke-width="0.5" stroke-linecap="round" stroke-linejoin="round"/>
</svg>
